<svg width="852" height="376" viewBox="0 0 852 376" fill="none" xmlns="http://www.w3.org/2000/svg">
<path d="M393.455 135.093C390.661 134.987 387.59 135.031 384.198 135.245C349.812 137.414 326.906 154.075 326.906 195.341V297.104H264.406V81.5586H324.103V110.004C334.914 95.2092 350.16 85.1288 369.998 80.5273L393.455 135.093Z" fill="white"></path>
<path d="M234.776 68.2734V297.277H175.081V272.438C159.456 291.268 136.619 300.482 107.772 300.482C46.875 300.482 0 257.212 0 189.504C9.71003e-05 121.796 46.875 78.5266 107.772 78.5264C134.215 78.5264 156.651 86.9393 172.276 104.567V0H204.747L234.776 68.2734ZM118.59 129.809C87.34 129.809 63.3018 152.244 63.3018 189.504C63.3018 226.764 87.3399 249.2 118.59 249.2C149.439 249.2 173.479 226.764 173.479 189.504C173.478 152.244 149.439 129.809 118.59 129.809Z" fill="white"></path>
<path d="M576.341 80.1562H636L539.352 307.785C518.67 359.609 489.239 375.156 450.659 375.156C428.784 375.156 404.92 367.981 391 355.622L413.67 311.372C423.216 319.744 436.341 324.927 448.67 324.927C465.773 324.927 475.318 317.352 483.67 298.217L484.466 296.224L391.795 80.1562H455.83L515.886 225.663L576.341 80.1562Z" fill="white"></path>
<path d="M794.553 277.157H790.551L787.446 272.672H787.262H784.019V277.157H780.293V261.057H787.262C791.563 261.057 794.254 263.288 794.254 266.899C794.254 269.314 793.035 271.085 790.942 271.982L794.553 277.157ZM790.482 266.899C790.482 265.128 789.332 264.093 787.055 264.093H784.019V269.705H787.055C789.332 269.705 790.482 268.647 790.482 266.899Z" fill="#F2E1BE"></path>
<path d="M769.422 277.157L767.996 273.707H760.521L759.095 277.157H755.277L762.453 261.057H766.133L773.332 277.157H769.422ZM761.717 270.878H766.823L764.27 264.714L761.717 270.878Z" fill="#F2E1BE"></path>
<path d="M746.34 268.785C748.134 269.36 749.284 270.74 749.284 272.764C749.284 275.547 747.076 277.157 742.844 277.157H734.518V261.057H742.384C746.409 261.057 748.479 262.736 748.479 265.243C748.479 266.853 747.651 268.095 746.34 268.785ZM741.924 263.863H738.221V267.658H741.924C743.741 267.658 744.73 267.014 744.73 265.749C744.73 264.484 743.741 263.863 741.924 263.863ZM742.568 274.351C744.5 274.351 745.535 273.753 745.535 272.373C745.535 271.016 744.5 270.372 742.568 270.372H738.221V274.351H742.568Z" fill="#F2E1BE"></path>
<path d="M714.77 277.157H710.768L707.663 272.672H707.479H704.236V277.157H700.51V261.057H707.479C711.78 261.057 714.471 263.288 714.471 266.899C714.471 269.314 713.252 271.085 711.159 271.982L714.77 277.157ZM710.699 266.899C710.699 265.128 709.549 264.093 707.272 264.093H704.236V269.705H707.272C709.549 269.705 710.699 268.647 710.699 266.899Z" fill="#F2E1BE"></path>
<path d="M687.674 277.157V261.057H691.4V277.157H687.674Z" fill="#F2E1BE"></path>
<path d="M676.803 277.157L675.377 273.707H667.902L666.476 277.157H662.658L669.834 261.057H673.514L680.713 277.157H676.803ZM669.098 270.878H674.204L671.651 264.714L669.098 270.878Z" fill="#F2E1BE"></path>
<path d="M651.948 261.057H655.674V277.157H651.948V270.556H644.634V277.157H640.908V261.057H644.634V267.405H651.948V261.057Z" fill="#F2E1BE"></path>
<path d="M789.523 248.157V235.093H784.371V232.057H798.401V235.093H793.249V248.157H789.523Z" fill="#F2E1BE"></path>
<path d="M770.195 248.433C765.618 248.433 762.904 245.811 762.904 241.073V232.057H766.63V240.935C766.63 243.994 767.964 245.259 770.218 245.259C772.495 245.259 773.806 243.994 773.806 240.935V232.057H777.486V241.073C777.486 245.811 774.772 248.433 770.195 248.433Z" fill="#F2E1BE"></path>
<path d="M746.143 248.431C741.06 248.431 737.334 244.889 737.334 240.105C737.334 235.321 741.06 231.779 746.143 231.779C751.203 231.779 754.952 235.298 754.952 240.105C754.952 244.912 751.203 248.431 746.143 248.431ZM746.143 245.257C749.018 245.257 751.18 243.164 751.18 240.105C751.18 237.046 749.018 234.953 746.143 234.953C743.268 234.953 741.106 237.046 741.106 240.105C741.106 243.164 743.268 245.257 746.143 245.257Z" fill="#F2E1BE"></path>
<path d="M727.613 232.057H731.178L725.911 248.157H721.909L718.367 237.255L714.71 248.157H710.731L705.441 232.057H709.305L712.939 243.373L716.734 232.057H720.184L723.864 243.465L727.613 232.057Z" fill="#F2E1BE"></path>
<path d="M690.485 248.431C685.402 248.431 681.676 244.889 681.676 240.105C681.676 235.321 685.402 231.779 690.485 231.779C695.545 231.779 699.294 235.298 699.294 240.105C699.294 244.912 695.545 248.431 690.485 248.431ZM690.485 245.257C693.36 245.257 695.522 243.164 695.522 240.105C695.522 237.046 693.36 234.953 690.485 234.953C687.61 234.953 685.448 237.046 685.448 240.105C685.448 243.164 687.61 245.257 690.485 245.257Z" fill="#F2E1BE"></path>
<path d="M663.785 248.157V232.057H667.511V245.121H675.584V248.157H663.785Z" fill="#F2E1BE"></path>
<path d="M652.73 239.785C654.524 240.36 655.674 241.74 655.674 243.764C655.674 246.547 653.466 248.157 649.234 248.157H640.908V232.057H648.774C652.799 232.057 654.869 233.736 654.869 236.243C654.869 237.853 654.041 239.095 652.73 239.785ZM648.314 234.863H644.611V238.658H648.314C650.131 238.658 651.12 238.014 651.12 236.749C651.12 235.484 650.131 234.863 648.314 234.863ZM648.958 245.351C650.89 245.351 651.925 244.753 651.925 243.373C651.925 242.016 650.89 241.372 648.958 241.372H644.611V245.351H648.958Z" fill="#F2E1BE"></path>
<path d="M799.5 125.228C837.234 125.228 852 142.572 852 164.976C852 187.56 834.865 208.156 796.401 208.156C778.719 208.156 759.943 203.82 747 195.69L759.943 168.77C770.333 175.635 783.094 179.249 795.307 179.249C807.521 179.249 815.724 174.371 815.724 165.879C815.724 158.11 810.438 153.051 790.932 153.051H756.297L762.677 79.1562H843.979V106.799H792.573L790.932 125.228H799.5Z" fill="#F2E1BE"></path>
<path d="M702.094 77.8047C716.312 77.8047 729.992 81.045 739.171 86.9844L726.212 112.543C719.013 107.503 711.093 106.064 702.994 106.063C684.996 106.063 672.936 116.143 671.136 135.401C678.155 129.282 687.695 126.042 699.574 126.042C723.332 126.042 742.951 141.701 742.951 165.819C742.951 192.097 720.992 208.836 693.454 208.836C664.048 208.836 643.147 194.079 637.004 165.502L671.904 83.582C680.76 79.7764 690.931 77.8047 702.094 77.8047ZM691.114 151.6C680.855 151.6 673.656 158.08 673.656 167.619C673.656 176.978 680.496 183.458 691.295 183.458C701.374 183.458 708.394 177.338 708.394 167.438C708.393 157.72 701.373 151.6 691.114 151.6Z" fill="#F2E1BE"></path>
</svg>