<svg width="855" height="376" viewBox="0 0 855 376" fill="none" xmlns="http://www.w3.org/2000/svg">
<path fill-rule="evenodd" clip-rule="evenodd" d="M393.455 135.093C390.661 134.987 387.59 135.031 384.198 135.245C349.812 137.414 326.906 154.075 326.906 195.341V297.104H264.406V81.5586H324.103V110.004C334.914 95.2092 350.16 85.1288 369.998 80.5273L393.455 135.093Z" fill="#6E3130"></path>
<path fill-rule="evenodd" clip-rule="evenodd" d="M234.776 68.2734V297.277H175.081V272.438C159.456 291.268 136.619 300.482 107.772 300.482C46.875 300.482 0 257.212 0 189.504C9.71003e-05 121.796 46.875 78.5266 107.772 78.5264C134.215 78.5264 156.651 86.9393 172.276 104.567V0H204.747L234.776 68.2734ZM118.59 129.809C87.34 129.809 63.3018 152.244 63.3018 189.504C63.3018 226.764 87.3399 249.2 118.59 249.2C149.439 249.2 173.479 226.764 173.479 189.504C173.478 152.244 149.439 129.809 118.59 129.809Z" fill="#6E3130"></path>
<path d="M576.341 80.1562H636L539.352 307.785C518.67 359.609 489.239 375.156 450.659 375.156C428.784 375.156 404.92 367.981 391 355.622L413.67 311.372C423.216 319.744 436.341 324.927 448.67 324.927C465.773 324.927 475.318 317.352 483.67 298.217L484.466 296.224L391.795 80.1562H455.83L515.886 225.663L576.341 80.1562Z" fill="#6E2F2C"></path>
<path d="M849.727 293.451H844.287L840.067 287.355H839.817H835.41V293.451H830.346V271.569H839.817C845.663 271.569 849.32 274.601 849.32 279.509C849.32 282.791 847.663 285.198 844.819 286.418L849.727 293.451ZM844.194 279.509C844.194 277.102 842.631 275.696 839.536 275.696H835.41V283.323H839.536C842.631 283.323 844.194 281.885 844.194 279.509Z" fill="#C76E5E"></path>
<path d="M815.572 293.451L813.634 288.762H803.475L801.537 293.451H796.348L806.101 271.569H811.102L820.886 293.451H815.572ZM805.1 284.917H812.04L808.57 276.54L805.1 284.917Z" fill="#C76E5E"></path>
<path d="M784.2 282.072C786.638 282.854 788.201 284.73 788.201 287.48C788.201 291.263 785.2 293.451 779.449 293.451H768.133V271.569H778.824C784.294 271.569 787.107 273.851 787.107 277.259C787.107 279.447 785.982 281.135 784.2 282.072ZM778.198 275.383H773.166V280.541H778.198C780.668 280.541 782.012 279.666 782.012 277.946C782.012 276.227 780.668 275.383 778.198 275.383ZM779.074 289.637C781.699 289.637 783.106 288.825 783.106 286.949C783.106 285.105 781.699 284.229 779.074 284.229H773.166V289.637H779.074Z" fill="#C76E5E"></path>
<path d="M741.293 293.451H735.854L731.634 287.355H731.384H726.976V293.451H721.912V271.569H731.384C737.229 271.569 740.887 274.601 740.887 279.509C740.887 282.791 739.23 285.198 736.385 286.418L741.293 293.451ZM735.76 279.509C735.76 277.102 734.197 275.696 731.102 275.696H726.976V283.323H731.102C734.197 283.323 735.76 281.885 735.76 279.509Z" fill="#C76E5E"></path>
<path d="M704.469 293.451V271.569H709.533V293.451H704.469Z" fill="#C76E5E"></path>
<path d="M689.693 293.451L687.755 288.762H677.596L675.658 293.451H670.469L680.222 271.569H685.223L695.007 293.451H689.693ZM679.221 284.917H686.161L682.691 276.54L679.221 284.917Z" fill="#C76E5E"></path>
<path d="M655.913 271.569H660.977V293.451H655.913V284.479H645.972V293.451H640.908V271.569H645.972V280.197H655.913V271.569Z" fill="#C76E5E"></path>
<path d="M842.891 254.037V236.282H835.889V232.155H854.957V236.282H847.955V254.037H842.891Z" fill="#C76E5E"></path>
<path d="M816.622 254.412C810.401 254.412 806.713 250.848 806.713 244.409V232.155H811.777V244.221C811.777 248.379 813.59 250.098 816.653 250.098C819.748 250.098 821.53 248.379 821.53 244.221V232.155H826.531V244.409C826.531 250.848 822.843 254.412 816.622 254.412Z" fill="#C76E5E"></path>
<path d="M783.933 254.412C777.025 254.412 771.961 249.598 771.961 243.096C771.961 236.594 777.025 231.78 783.933 231.78C790.81 231.78 795.906 236.563 795.906 243.096C795.906 249.629 790.81 254.412 783.933 254.412ZM783.933 250.098C787.841 250.098 790.779 247.254 790.779 243.096C790.779 238.939 787.841 236.094 783.933 236.094C780.026 236.094 777.087 238.939 777.087 243.096C777.087 247.254 780.026 250.098 783.933 250.098Z" fill="#C76E5E"></path>
<path d="M758.749 232.155H763.594L756.436 254.037H750.997L746.183 239.22L741.213 254.037H735.805L728.615 232.155H733.867L738.806 247.535L743.964 232.155H748.652L753.654 247.66L758.749 232.155Z" fill="#C76E5E"></path>
<path d="M708.289 254.412C701.38 254.412 696.316 249.598 696.316 243.096C696.316 236.594 701.38 231.78 708.289 231.78C715.166 231.78 720.261 236.563 720.261 243.096C720.261 249.629 715.166 254.412 708.289 254.412ZM708.289 250.098C712.196 250.098 715.135 247.254 715.135 243.096C715.135 238.939 712.196 236.094 708.289 236.094C704.381 236.094 701.443 238.939 701.443 243.096C701.443 247.254 704.381 250.098 708.289 250.098Z" fill="#C76E5E"></path>
<path d="M672 254.037V232.155H677.064V249.911H688.036V254.037H672Z" fill="#C76E5E"></path>
<path d="M656.976 242.658C659.414 243.44 660.977 245.315 660.977 248.066C660.977 251.849 657.976 254.037 652.224 254.037H640.908V232.155H651.599C657.069 232.155 659.883 234.437 659.883 237.844C659.883 240.033 658.757 241.721 656.976 242.658ZM650.974 235.969H645.941V241.127H650.974C653.443 241.127 654.787 240.251 654.787 238.532C654.787 236.813 653.443 235.969 650.974 235.969ZM651.849 250.223C654.475 250.223 655.881 249.41 655.881 247.535C655.881 245.691 654.475 244.815 651.849 244.815H645.941V250.223H651.849Z" fill="#C76E5E"></path>
<path d="M799.5 125.228C837.234 125.228 852 142.572 852 164.976C852 187.56 834.865 208.156 796.401 208.156C778.719 208.156 759.943 203.82 747 195.69L759.943 168.77C770.333 175.635 783.094 179.249 795.307 179.249C807.521 179.249 815.724 174.371 815.724 165.879C815.724 158.11 810.438 153.051 790.932 153.051H756.297L762.677 79.1562H843.979V106.799H792.573L790.932 125.228H799.5Z" fill="#C76E5E"></path>
<path fill-rule="evenodd" clip-rule="evenodd" d="M702.094 77.8047C716.312 77.8047 729.992 81.045 739.171 86.9844L726.212 112.543C719.013 107.503 711.093 106.064 702.994 106.063C684.996 106.063 672.936 116.143 671.136 135.401C678.155 129.282 687.695 126.042 699.574 126.042C723.332 126.042 742.951 141.701 742.951 165.819C742.951 192.097 720.992 208.836 693.454 208.836C664.048 208.836 643.147 194.079 637.004 165.502L671.904 83.582C680.76 79.7764 690.931 77.8047 702.094 77.8047ZM691.114 151.6C680.855 151.6 673.656 158.08 673.656 167.619C673.656 176.978 680.496 183.458 691.295 183.458C701.374 183.458 708.394 177.338 708.394 167.438C708.393 157.72 701.373 151.6 691.114 151.6Z" fill="#C76E5E"></path>
</svg>